<svg xmlns="http://www.w3.org/2000/svg" width="256" height="256"><path fill-opacity=".016" d="M0 128.004v128.004l128.25-.254 128.25-.254.254-127.75L257.008 0H0v128.004m.485.496c0 70.4.119 99.053.265 63.672.146-35.38.146-92.98 0-128C.604 29.153.485 58.1.485 128.5" fill="#1976D2" fill-rule="evenodd"/><path fill-opacity=".227" d="M121 1c0 .55-2.523 1-5.607 1s-8.709.749-12.5 1.664L96 5.327v33.518l-3.609 1.191c-4.515 1.49-16.642 8.352-21.724 12.292-3.534 2.74-3.781 3.253-3.167 6.572C69.184 68.002 84 95.834 84 89.894c0-1.464 7.454-13.116 11.767-18.394 8.934-10.933 20.663-21.555 32.552-29.482C135.942 36.935 156.854 26 158.95 26c.665 0 1.05-3.773 1.05-10.293V5.415l-4.75-1.296c-2.613-.712-8.225-1.544-12.472-1.848-4.247-.304-7.483-.939-7.191-1.412.292-.472-2.871-.859-7.028-.859C124.186 0 121 .422 121 1m34.311 42.833C147.576 52.882 138 67.209 138 69.734c0 .542 5.194 1.22 11.75 1.534 12.166.582 15.9 1.256 30.242 5.459 16.885 4.948 35.582 14.528 48.63 24.915l4.122 3.282 5.399-3.212c2.969-1.767 6.681-3.88 8.249-4.696 3.9-2.03 4.184-3.347 2.129-9.874-4.441-14.112-15.335-32.809-25.169-43.195l-4.484-4.737-14.106 8.222-14.105 8.222-7.578-5.198c-7.621-5.227-12.46-7.932-19.252-10.76l-3.672-1.529-4.844 5.666m-123.365.999C22.108 55.834 11.986 73.046 8.029 85.5c-.699 2.2-1.666 4.427-2.15 4.95C4.71 91.713 4.752 95 5.938 95c1.101 0 24.986 13.725 26.794 15.396.937.866 1.004 3.167.28 9.621-.87 7.756-.057 24.272 1.26 25.588.283.283 5.85 1.38 12.371 2.437 13.264 2.15 26.357 2.582 26.357.87 0-.598-1.687-4.081-3.75-7.741-10.786-19.14-15.515-38.673-15.657-64.671-.051-9.35.236-19.25.639-22l.732-5-8.975-5.168-8.975-5.169-5.068 5.669m86.709 28.418c.254.412-.733.75-2.195.75-2.679 0-5.458 1.06-15.383 5.871-9.563 4.636-20.849 17.314-24.468 27.489-3.931 11.049-4.771 15.44-4.346 22.724.455 7.801 3.068 19.405 4.855 21.558.58.699.721 1.81.314 2.469-.409.661-.319.937.201.616.518-.321 2.133 1.522 3.588 4.095 2.884 5.101 9.157 11.572 14.986 15.458 2.039 1.36 3.389 2.791 3 3.18-.389.388-.257.578.293.42 1.631-.467 8.439 2.41 7.872 3.326-.286.464-.15.755.304.648 1.606-.382 10.297 1.38 9.906 2.008-.219.351 2.962.489 7.068.307 6.33-.281 7.417-.585 7.149-2-.225-1.186-1.551-1.758-4.58-1.978-2.346-.169-4.073-.619-3.839-1 .234-.38-.963-.792-2.659-.915-4.097-.298-15.885-6.202-15.057-7.542.355-.574.202-.769-.339-.435-1.387.857-10.672-8.907-13.598-14.299-5.918-10.905-7.278-25.03-3.612-37.52 2.705-9.22 10.199-18.691 19.391-24.507 6.731-4.259 8.531-5.068 9.689-4.352.626.387.836.238.479-.339-.864-1.399 4.977-2.258 15.451-2.271 10.044-.013 15.113.796 14.204 2.265-.351.568-.166.741.41.385 2.011-1.243 13.949 5.048 12.727 6.706-.256.348-.181.423.168.166 1.67-1.231 12.776 10.995 11.647 12.822-.325.525-.148.681.393.347 1.275-.788 4.684 6.909 3.738 8.44-.422.684-.288.9.324.521 1.185-.732 2.806 6.16 1.692 7.189-.386.356-.903.086-1.148-.602-.765-2.141-2.773-1.378-4.624 1.756-1.763 2.984-8.483 6.994-11.722 6.994-3.426 0-8.888-3.074-11.464-6.451-4.864-6.376-2.586-17.288 4.279-20.495 5.234-2.446 5.634-2.702 6.018-3.854.562-1.687-9.373-5.857-15.767-6.618-3.025-.36-8.65-.159-12.5.446-3.85.606-7.543 1.147-8.206 1.203-.663.056-.974.477-.691.936.283.458-.137.833-.934.833-2.205 0-12.911 8.355-15.129 11.807-1.079 1.678-2.241 2.878-2.584 2.666-.342-.212-.632.158-.642.821-.011.663-1.099 3.456-2.417 6.206-2.021 4.216-2.392 6.489-2.363 14.5.034 9.399.619 16.171 1.337 15.46.204-.203 1.485 1.868 2.846 4.6 4.504 9.038 18.277 19.94 25.192 19.94 1.215 0 1.989.356 1.72.792-.269.435 3.723.791 8.871.791 5.148 0 9.14-.356 8.871-.791-.269-.436.55-.795 1.82-.798 1.27-.004 3.593-.676 5.163-1.495 1.57-.819 3.327-1.196 3.905-.839.588.364.756.173.381-.433-.368-.596.174-1.35 1.203-1.677 2.512-.797 10.854-9.11 13.757-13.708 2.498-3.958 6.4-17.388 6.4-22.03 0-2.145.474-2.812 2-2.812 1.794 0 2-.667 2-6.465 0-3.556-.707-8.548-1.571-11.093-.864-2.546-1.32-5.285-1.012-6.087.308-.802.163-1.214-.322-.914-.846.523-2.624-4.064-2.234-5.765.104-.454-.229-.567-.739-.252-.51.316-1.363-.676-1.895-2.203-1.293-3.709-10.221-13.366-15.731-17.016-2.438-1.615-4.221-3.221-3.964-3.57.257-.349.22-.462-.084-.25-.303.212-3.565-.901-7.25-2.473-3.684-1.572-7.962-2.87-9.507-2.885-1.545-.015-2.6-.365-2.346-.777.255-.412-3.95-.75-9.345-.75-5.395 0-9.6.338-9.345.75M183 108.596c0 .327.832 1.79 1.849 3.25 2.235 3.206 8.268 15.937 10.5 22.154 5.938 16.543 8.597 39.238 7.077 60.396l-.926 12.896 3.5 2.181c1.925 1.2 5.864 3.497 8.754 5.104l5.253 2.923 4.011-4.5c9.795-10.99 17.878-23.992 23.313-37.5 1.328-3.3 2.698-7.59 3.046-9.532l.632-3.533-13.769-7.905-13.769-7.904.014-16.89c.013-14.995-.183-17.035-1.75-18.184-3.297-2.417-37.735-5.115-37.735-2.956M14.635 157.507C10.309 159.978 6.372 162 5.885 162c-.487 0-.885.675-.885 1.5s.45 1.5 1 1.5 1.015 1.012 1.034 2.25c.019 1.238.903 4.05 1.966 6.25s1.947 4.46 1.966 5.023c.043 1.294 11.271 21.536 13.357 24.079C32.547 212.63 36.453 217 37.192 217c.482 0 6.068-3.037 12.412-6.75 17.994-10.529 15.769-9.885 20.656-5.975 4.989 3.993 16.863 10.867 21.783 12.61 3.44 1.219 3.482 1.198 8.702-4.372 6.439-6.87 17.255-23.054 17.255-25.819 0-.212-5.737-.667-12.75-1.011-25.224-1.238-52.793-11.583-75.61-28.371-3.223-2.372-6.148-4.309-6.5-4.305-.352.005-4.179 2.03-8.505 4.5m154.955 13.744c-4.636 8.364-14.807 20.848-23.791 29.201-10.354 9.626-22.85 17.95-38.04 25.338l-11.74 5.71-.01 10.128L96 251.757l4.25 1.114c9.297 2.437 28.165 3.481 40.466 2.239 6.481-.654 13.472-1.693 15.534-2.308l3.75-1.119v-16.219c0-11.802.34-16.478 1.25-17.169.688-.523 3.405-1.747 6.039-2.721 4.791-1.77 22.711-12.963 22.711-14.185 0-1.504-5.372-15.39-8.275-21.389-3.496-7.226-7.662-14.001-8.608-13.999-.339.001-1.926 2.363-3.527 5.25" fill="#1976D2" fill-rule="evenodd"/><path fill-opacity=".221" d="M106.188 3.722l-9.313 1.624.313 17.247c.268 14.837.102 17.234-1.188 17.15-1.953-.128-17 7.146-17 8.218 0 .452-1.143 1.109-2.541 1.46-1.5.376-2.262 1.088-1.861 1.738.403.652.118.913-.699.641-.758-.253-2.207.593-3.219 1.88-1.012 1.286-2.312 2.047-2.89 1.69-.615-.38-.813-.073-.479.741.313.764 1.322 3.815 2.241 6.779 1.832 5.91 8.367 19.411 9.653 19.945.444.185.585.696.312 1.137-.272.441.175 1.357.994 2.037.819.68 1.489 1.911 1.489 2.736 0 2.639 2.555-.366 3.978-4.679.719-2.179 1.918-4.196 2.665-4.482.746-.287 1.357-1.06 1.357-1.719 0-.658.65-1.91 1.445-2.781 5.924-6.494 9.813-11.311 8.555-10.596-.825.469 1.2-1.873 4.5-5.205 3.3-3.333 6.179-5.893 6.399-5.689.219.204 2.061-1.084 4.093-2.862 6.001-5.25 7.976-6.732 8.97-6.732.516 0 1.339-.715 1.828-1.59.489-.874 1.074-1.505 1.3-1.403.695.317 7.119-3.408 9.067-5.257 1.013-.962 1.843-1.47 1.843-1.128 0 .343.675.063 1.5-.622s1.507-.852 1.515-.372c.009.479.346.413.75-.148.867-1.204 6.403-3.906 7.485-3.655.412.096.75-.275.75-.825 0-.55.675-1 1.5-1s1.5-.4 1.5-.889.563-.868 1.25-.842c4.792.178 4.75.271 4.75-10.565V5.407l-7.25-1.327c-11.392-2.085-34.616-2.268-45.562-.358m49.291 40.498C149.503 50.849 138 68.152 138 70.512c0 .112 5.963.458 13.25.768 17.466.743 35.361 5.499 50.25 13.356 1.65.87 5.25 2.755 8 4.188 2.75 1.433 9.184 5.451 14.298 8.929l9.298 6.324 8.445-4.788c4.645-2.634 8.44-5.239 8.433-5.789-.036-2.753-6.415-18.606-10.506-26.111C233.604 56.631 221.139 40 218.94 40c-.401 0-7.044 3.617-14.763 8.039l-14.035 8.038-5.105-3.864c-5.134-3.886-18.699-11.447-22.668-12.634-1.694-.507-3.106.443-6.89 4.641m-123.006.53c-6.708 7.913-9.962 12.416-14.344 19.856C13.502 72.461 7 87.422 7 90.212 7 91.196 6.55 92 6 92c-3.056 0 .498 2.688 13.435 10.161L33.87 110.5l-.577 11.536c-.317 6.345-.261 14.064.125 17.154.607 4.86 1.064 5.761 3.392 6.688 5.794 2.308 36.19 4.366 36.19 2.451 0-.369-.636-1.382-1.413-2.25-2.331-2.605-8.488-15.555-11.084-23.314-6.287-18.788-6.805-22.453-6.935-49.018l-.121-24.753-7.682-4.497C41.54 42.024 37.727 40 37.292 40c-.436.001-2.604 2.138-4.819 4.75m151.851 64.109c1.003.396 1.78 1.044 1.727 1.441-.054.397 1.805 4.655 4.13 9.461s4.277 8.964 4.338 9.239c.56 2.535 2.982 9.712 3.544 10.5.391.55 1.741 6.625 2.998 13.5 2.444 13.37 3.2 35.543 1.63 47.828-.753 5.894-.667 6.366 1.25 6.867 1.133.296 2.059.922 2.059 1.39 0 .469.617.615 1.371.326s1.64.175 1.969 1.032c.328.856 1.286 1.557 2.129 1.557.842 0 1.531.525 1.531 1.167 0 .641.304.862.676.491.372-.372 1.634.224 2.805 1.324l2.128 2 2.446-3.033c1.345-1.668 4.792-5.805 7.66-9.193 2.868-3.388 5.027-6.348 4.797-6.577-.229-.229.124-1.023.786-1.763 3.228-3.615 3.758-4.516 3.194-5.429-.335-.543-.167-.987.375-.987.934 0 6.333-10.011 6.313-11.704-.006-.438.343-1.246.775-1.796.8-1.02 2.951-7.188 3.139-9 .057-.55.525-1.787 1.04-2.75.768-1.436.258-2.062-2.849-3.5-2.082-.962-3.936-2.09-4.12-2.506-.185-.416-.747-.502-1.25-.191s-.915.161-.915-.333c0-.965-5.006-3.684-6.25-3.395-.412.096-.75-.172-.75-.596s-2.13-1.886-4.732-3.25c-7.491-3.924-7.418-3.774-6.162-12.657.644-4.56.809-11.158.394-15.822-.391-4.4-.739-8.546-.772-9.214-.063-1.237-6.004-2.754-17.054-4.353-7.292-1.054-22.984-1.112-20.35-.074M18 156.399c-1.925 1.111-3.65 2.376-3.833 2.811-.184.434-.921.79-1.64.79-.718 0-2.287.794-3.486 1.765-2.169 1.757-2.171 1.796-.446 8 .953 3.429 2.053 6.235 2.444 6.235s.962 1.257 1.27 2.793c.621 3.107 8.478 17.516 9.838 18.042.476.185.63.717.343 1.182-.288.465.484 1.552 1.716 2.415 1.231.862 1.862 1.568 1.4 1.568-.461 0 .676 1.716 2.528 3.813a287.153 287.153 0 016.282 7.406c2.505 3.086 3.114 3.394 4.321 2.187.773-.773 1.894-1.406 2.49-1.406.596 0 2.589-1.148 4.429-2.551 1.839-1.403 3.351-2.19 3.359-1.75.009.441.346.342.75-.219.404-.562 1.86-1.596 3.235-2.299 1.375-.703 4.3-2.345 6.5-3.649 5.198-3.081 8.238-3.107 11.03-.094 1.243 1.341 2.566 2.133 2.94 1.759.374-.374 1.119.103 1.655 1.061S76.752 208 77.55 208c.797 0 1.45.363 1.45.808C79 209.849 91.328 216 93.414 216c.872 0 1.586.505 1.586 1.122 0 .776.464.738 1.5-.122.825-.685 1.5-1.825 1.5-2.534 0-.708 1.237-2.347 2.75-3.642 3.261-2.791 8.25-9.266 8.25-10.708 0-.559.787-1.475 1.75-2.036.963-.561 1.39-1.033.949-1.05-.44-.016.281-1.493 1.602-3.28 3.421-4.626 4.02-6.745 1.918-6.774-12.428-.174-30.377-2.565-36.377-4.846-1.288-.49-2.792-.947-3.342-1.015-1.371-.171-7.56-2.074-10-3.074-3.838-1.574-22.008-10.536-23-11.345-1.884-1.535-7.999-5.101-8.831-5.148-.456-.027-1.469-.922-2.25-1.989-.78-1.068-1.419-1.552-1.419-1.076s-1.131-.197-2.513-1.495c-3.185-2.992-5.117-3.112-9.487-.589m153.446 11.772c-1.048 3.302-7.195 12.679-12.342 18.829-13.273 15.857-31.029 29.512-50.738 39.018-5.681 2.74-10.802 4.982-11.382 4.982-.688 0-.955 3.521-.769 10.142l.285 10.141 4.5 1.536c6.581 2.246 48.723 2.195 54.5-.066l4-1.565.273-16.42.274-16.419 5.315-2.203c6.024-2.497 20.686-11.295 22.534-13.521 1.223-1.473.382-6.989-1.848-12.125-5.456-12.57-11.879-24.5-13.188-24.5-.399 0-1.035.977-1.414 2.171" fill="#1976D2" fill-rule="evenodd"/><path fill-opacity=".312" d="M155.06 45.023c-6.761 8.125-16.063 22.41-16.058 24.661.001.449 4.332.929 9.625 1.067 13.825.36 29.788 3.345 38.873 7.268 1.1.475 5.277 2.263 9.282 3.973 8.672 3.702 16.93 8.41 27.481 15.668 4.27 2.937 8.207 5.34 8.75 5.34.96 0 10.274-4.714 12.417-6.284.588-.431 1.832-1.331 2.763-2 1.571-1.128 1.49-1.797-1.11-9.216-5.198-14.832-15.46-32.157-24.577-41.493l-3.691-3.78-13.769 7.886C197.473 52.451 190.827 56 190.276 56c-.551 0-2.75-1.345-4.888-2.988-7.568-5.817-9.608-7.004-19.888-11.571-2.2-.978-4.312-1.937-4.693-2.133-.382-.196-2.968 2.376-5.747 5.715M33.501 43.999C25.265 52.433 13.42 71.918 9.972 82.703c-.667 2.089-1.609 4.224-2.093 4.747C7.396 87.972 7 89.435 7 90.7s-.562 2.302-1.25 2.306c-.687.003 5.275 3.739 13.25 8.303l14.5 8.299-.337 10.446c-.185 5.745-.038 13.667.327 17.605l.664 7.159 7.173 1.642c3.945.904 12.681 1.913 19.412 2.243l12.239.6-4.5-7.896c-2.474-4.343-5.217-9.923-6.094-12.402-.878-2.478-1.963-5.405-2.412-6.505-5.082-12.446-7.303-30.146-6.83-54.444l.358-18.444-8.151-4.7-8.15-4.7-3.698 3.787m137.921 125.693c-6.46 10.674-12.131 18.082-20.412 26.661-5.23 5.419-10.635 10.445-12.01 11.168-1.375.724-4.153 2.815-6.174 4.647-2.021 1.833-4.204 3.46-4.85 3.615-.647.156-3.494 1.731-6.326 3.5-5.781 3.611-18.95 10.189-22.434 11.207-2.21.645-2.275.994-2 10.798l.284 10.131 8.5 1.745c11.55 2.371 31.613 2.417 43.748.101l9.248-1.765.002-17.309c.001-9.52.346-17.096.768-16.836.421.26 3.008-.587 5.75-1.883 2.741-1.296 5.547-2.383 6.234-2.414.688-.032 1.25-.479 1.25-.993 0-.515 1.575-1.505 3.5-2.201 1.925-.696 3.5-1.595 3.5-1.998 0-.402.787-.998 1.75-1.325.963-.326 3.02-1.713 4.573-3.082 2.652-2.338 2.754-2.713 1.68-6.224-2.157-7.053-10.234-24.352-13.094-28.043l-1.787-2.307-1.7 2.807" fill="#1976D2" fill-rule="evenodd"/></svg>