<svg xmlns="http://www.w3.org/2000/svg" width="256" height="256"><path fill-opacity=".016" d="M0 128.004v128.004l128.25-.254 128.25-.254.254-127.75L257.008 0H0v128.004m.485.496c0 70.4.119 99.053.265 63.672.146-35.38.146-92.98 0-128C.604 29.153.485 58.1.485 128.5" fill="#1976D2" fill-rule="evenodd"/><path fill-opacity=".075" d="M1.133 60.25c.09 40.849.414 57.557 1.007 51.887C8.287 53.367 56.984 5.91 116.5.687 118.7.494 93.612.261 60.75.168L1 0l.133 60.25M139 .703c20.792 1.636 43.572 10.144 62 23.156 8.786 6.204 22.466 19.995 28.905 29.141 12.852 18.252 21.39 41.427 23.395 63.5.2 2.2.439-23.112.532-56.25L254 0l-59.75.175c-32.863.096-57.725.334-55.25.528m-11.917 30.412c-22.671 3.055-46.171 15.087-63.462 32.489-20.987 21.124-32.626 49.637-32.612 79.896.022 51.151 37.645 98.031 87.491 109.018l6 1.323-5.119.08c-12.853.199-34.275-5.673-49.638-13.608C31.038 220.323 5.897 182.545 1.654 138c-.184-1.925-.406 23.837-.494 57.25L1 256h253v-63.935c0-69.084-.015-69.321-5.577-85.889-9.758-29.068-34.252-55.592-62.01-67.148-17.784-7.403-40.566-10.442-59.33-7.913m4.68 30.464C109.344 65.633 87.048 80.416 74.57 99.5c-10.79 16.502-14.827 29.761-14.92 49-.077 15.983 2.309 26.773 8.845 40.003 19.733 39.939 65.215 59.191 107.624 45.557 38.943-12.519 65.206-52.08 61.418-92.514l-.71-7.575-4.971 4.469c-2.735 2.458-7.533 5.727-10.664 7.265-5.231 2.569-6.624 2.795-17.192 2.793-11.082-.001-11.732-.122-17.875-3.327-8.495-4.432-15.488-11.604-19.432-19.93-2.976-6.283-3.19-7.454-3.143-17.241.044-9.143.388-11.234 2.663-16.178 3.235-7.03 9.51-13.994 16.983-18.85l5.696-3.702-8.038-3.146c-14.934-5.845-32.77-7.497-49.091-4.545" fill="#1976D2" fill-rule="evenodd"/><path fill-opacity=".319" d="M1.103 56.75c.089 49.36.267 55.77 1.371 49.224C11.47 52.602 52.559 11.321 106.5 1.46 112.58.349 106.107.169 57.25.09L1 0l.103 56.75M149.166 1.567c26.17 4.735 49.916 17.484 68.663 36.864 20.25 20.933 31.898 45.561 35.505 75.069.201 1.65.434-23.212.516-55.25L254 0l-56.25.09c-51.15.081-55.555.215-48.584 1.477M137 30.702c-45.498 2.756-83.757 31.638-99.33 74.986-3.997 11.126-5.993 23.388-5.993 36.812 0 31.763 11.998 59.594 35.285 81.842 16.096 15.377 34.442 24.592 58.063 29.162l7.475 1.447-11-.493C62.094 251.799 13.387 208.445 2.457 148.5c-1.106-6.065-1.289.647-1.367 50.25L1 256h253.094l-.325-65.75-.324-65.75-2.672-9.777C236.578 62.777 188.888 27.559 137 30.702m-7.787 30.876c-12.647 2.77-28.707 10.858-38.929 19.603C78.578 91.198 68.26 106.572 63.226 121.5c-6.696 19.854-5.244 45.272 3.716 65.032C78.02 210.964 100.96 229.778 128 236.606c10.436 2.635 30.621 2.627 41-.016 27.335-6.963 49.916-25.485 61.075-50.096 5.838-12.874 7.394-20.573 7.41-36.659.008-8.066-.256-14.938-.588-15.27-.332-.332-2.357 1.016-4.5 2.997-10.977 10.143-24.579 13.625-38.777 9.927-7.608-1.981-13.376-5.452-18.93-11.389-11.908-12.731-14.649-30.444-7.098-45.877 3.235-6.613 11.509-15.203 17.13-17.784 2.322-1.067 4.085-2.389 3.919-2.939-.442-1.458-13.569-6.302-21.733-8.019-8.749-1.841-29.088-1.788-37.695.097" fill="#1976D2" fill-rule="evenodd"/><path fill-opacity=".14" d="M1.136 54.75c.075 30.112.333 53.625.573 52.25C4.08 93.438 9.878 76.903 16.262 65.5 34.459 32.999 63.871 10.724 99.5 2.459l10-2.319L55.25.07 1 0l.136 54.75M153 1.954c50.637 10.806 90.198 51.562 99.537 102.546 1.116 6.09 1.294-.247 1.373-48.75L254 0l-54.75.07-54.75.071 8.5 1.813m-29.078 30.598C79.985 40.508 45.75 72.737 34.889 116.37c-2.923 11.739-3.601 32.356-1.467 44.591 6.479 37.143 29.417 67.378 63.089 83.157 7.985 3.742 21.159 7.655 32.489 9.651l5.5.968-8.881.132c-16.599.245-38.865-4.933-54.066-12.575-35.052-17.621-60.481-50.525-68.482-88.613L1.142 144.5l-.071 55.75L1 256h253.095l-.363-64.25c-.391-69.078-.359-68.626-5.921-85.25-10.44-31.208-35.77-57.163-67.411-69.074-15.545-5.851-39.612-7.928-56.478-4.874m10.738 27.425c-40.746 7.433-71.498 39.82-75.57 79.588-4.149 40.519 18.008 77.436 55.91 93.156 20.418 8.469 46.582 8.469 67 0 39.117-16.223 61.637-55.482 55.386-96.551l-.507-3.331-4.971 4.651c-13.846 12.951-34.55 14.68-50.158 4.188-12.436-8.36-18.373-20.588-17.556-36.161.357-6.797 1.025-9.52 3.639-14.83 3.626-7.366 12.922-16.746 18.646-18.815 1.936-.701 3.521-1.572 3.521-1.936 0-1.09-10.968-5.657-19-7.912-8.483-2.381-28.368-3.501-36.34-2.047" fill="#1976D2" fill-rule="evenodd"/></svg>