<svg xmlns="http://www.w3.org/2000/svg" width="256" height="256"><path fill-opacity=".016" d="M0 128.004v128.004l128.25-.254 128.25-.254.254-127.75L257.008 0H0v128.004m.485.496c0 70.4.119 99.053.265 63.672.146-35.38.146-92.98 0-128C.604 29.153.485 58.1.485 128.5" fill="#1976D2" fill-rule="evenodd"/><path fill-opacity=".115" d="M.16 58.75C.248 91.063.489 115.925.694 114c2.073-19.378 9.996-40.653 21.599-58C28.739 46.364 46.364 28.739 56 22.293 71.676 11.808 90.523 4.326 108 1.651 116.942.282 114.046.19 58.75.098L0 0l.16 58.75M147 1.538c27.803 4.396 51.083 16.288 71.129 36.333 20.045 20.046 31.937 43.326 36.333 71.129 1.212 7.662 1.354 2.707 1.441-50.25L256 0l-58.75.097C144.293.184 139.338.326 147 1.538M120.5 33.54c-22.362 4.182-41.209 14.074-57.181 30.014-21.427 21.384-32.62 50.234-30.99 79.873 1.523 27.685 11.312 49.906 30.671 69.622 18.212 18.548 40.494 29.281 65.486 31.546 6.086.552 7.889 1.103 9.057 2.769 1.957 2.795 1.836 4.257-.551 6.644l-2.007 2.007 60.757-.257 60.758-.258.292-56.5c.287-55.646-.079-67.997-1.876-63.25-1.188 3.138-6.398 3.433-8.666.49-1.023-1.328-1.252.366-1.263 9.319-.032 26.897-8.776 48.186-27.487 66.926-13.129 13.149-25.144 20.141-43.113 25.091-9.191 2.531-30.257 3.037-40.453.971-36.921-7.481-64.74-34.527-73.592-71.547-2.359-9.865-2.374-30.685-.03-40.237 4.133-16.844 11.828-31.328 23.117-43.516 19.833-21.412 49.798-32.587 78.374-29.229 10.533 1.238 24.77 5.496 32.697 9.78 4.137 2.236 5.052 3.234 5.301 5.787.355 3.634-.653 4.583-7.182 6.757-9.234 3.076-17.719 11.724-20.643 21.039-2.053 6.543-.835 18.27 2.543 24.476 6.95 12.77 21.632 19.27 35.502 15.716 8.082-2.07 14.439-6.669 19.538-14.132 6.274-9.185 11.157-8.411 12.995 2.059 1.152 6.562 2.606 7.696 1.923 1.5-5.006-45.441-38.938-82.889-83.943-92.643-10.278-2.227-30.305-2.636-40.034-.817M1.084 201.75L1 256l58.25-.098c54.858-.093 57.697-.183 48.75-1.553-17.477-2.675-36.324-10.157-52-20.642-9.636-6.446-27.261-24.071-33.707-33.707-9.201-13.756-15.695-28.732-19.297-44.5l-1.827-8-.085 54.25" fill="#1976D2" fill-rule="evenodd"/><path fill-opacity=".117" d="M.126 58.75c.086 39.56.418 56.464 1.019 51.75C8.245 54.796 54.796 8.245 110.5 1.145 115.214.544 98.31.212 58.75.126L0 0l.126 58.75M144.779 1.069c57.152 7.425 102.727 53 110.152 110.152.491 3.783.866-17.074.942-52.471L256 0l-58.75.127c-35.397.076-56.254.451-52.471.942m-21.194 31.966c-15.22 2.404-31.313 8.667-43.704 17.008-8.794 5.92-22.861 19.844-28.957 28.661-6.773 9.798-12.495 22.261-15.651 34.09-2.274 8.522-2.589 11.658-2.589 25.706s.315 17.184 2.589 25.706c8.006 30.008 27.904 54.996 54.727 68.723 12.144 6.215 23.364 9.714 36.652 11.433 6.649.859 10.887 1.879 11.439 2.752 1.558 2.459.967 5.732-1.325 7.337-2.035 1.426 3.185 1.542 58.75 1.307l60.984-.258.286-57c.157-31.35.027-58.445-.288-60.212-.571-3.191-.587-3.199-2.536-1.25-2.369 2.369-3.812 2.456-6.739.405L245 135.887v10.468c0 33.804-15.964 62.792-44.15 80.17-15.021 9.261-30.578 13.486-49.558 13.458-18.146-.027-32.413-3.831-47.571-12.682-11.644-6.8-26.635-21.927-33-33.301C44.168 146.554 61.817 87.059 109.5 63.273c13.447-6.708 26.759-9.678 43-9.595 14.948.077 26.612 2.681 38.509 8.599 8.48 4.218 8.491 4.228 8.491 8.121 0 3.798-.129 3.939-5.047 5.543-14.39 4.691-23.423 16.301-23.443 30.131-.014 9.006 2.254 14.962 8.156 21.419 12.871 14.083 32.552 14.761 45.472 1.567 2.276-2.324 4.947-5.729 5.937-7.567 3.733-6.932 9.454-6.252 11.804 1.404 2.484 8.095 1.869.34-.81-10.223-2.608-10.279-8.09-22.916-13.762-31.722-13.997-21.73-38.011-38.976-63.307-45.466-11.271-2.891-30.737-4.057-40.915-2.449M243.638 129.5c.317.825.753 1.5.969 1.5.216 0 .393-.675.393-1.5s-.436-1.5-.969-1.5c-.532 0-.709.675-.393 1.5M1.136 201.75L1 256l58.25-.126c39.266-.086 55.969-.418 51.25-1.019-49.835-6.352-93.292-44.614-106.029-93.355-1.294-4.95-2.543-10.125-2.775-11.5-.233-1.375-.485 21.912-.56 51.75" fill="#1976D2" fill-rule="evenodd"/><path fill-opacity=".296" d="M.09 56.25c.081 51.15.215 55.555 1.477 48.584 3.25-17.964 11.364-37.07 22.039-51.896 6.645-9.229 21.279-23.734 30.544-30.276 14.027-9.903 33.406-17.969 50.684-21.095C111.805.305 107.4.171 56.25.09L0 0l.09 56.25M151.403 1.607c16.03 2.894 34.114 10.314 48.962 20.089 9.141 6.018 27.897 24.756 33.836 33.804 9.853 15.009 17.312 33.147 20.192 49.097 1.317 7.293 1.434 3.564 1.517-48.347L256 0l-56.25.09c-51.911.083-55.64.2-48.347 1.517m-33.298 32.939C90.74 40.482 67.831 55.562 51.582 78.332c-5.796 8.123-11.795 20.789-15.235 32.168-2.544 8.417-2.722 10.231-2.745 28-.022 17.902.135 19.52 2.721 28 5.406 17.725 13.565 32.043 25.421 44.612 9.147 9.696 17.922 16.085 30.756 22.394 12.037 5.917 22.491 9.015 35.358 10.478 4.597.523 8.985 1.471 9.75 2.106 1.711 1.42 1.83 7.072.184 8.718-.944.944 11.897 1.152 58.75.95l59.958-.258.301-52.5c.166-28.875.016-55.757-.334-59.737-.562-6.406-.806-7.067-2.123-5.75-1.72 1.72-4.671 1.918-7.337.491-1.733-.928-1.825-.633-1.325 4.25.697 6.816-1.212 22.373-3.834 31.246-7.8 26.392-27.214 48.529-51.935 59.216-47.686 20.617-102.02.292-123.501-46.199-6.551-14.18-7.896-21.037-7.849-40.017.039-15.577.269-17.736 2.749-25.797 8.147-26.48 25.045-46.498 49.188-58.269 14.718-7.176 22.185-8.76 41.5-8.8 15.162-.032 17.213.184 25.288 2.672 12.605 3.883 22.518 9.071 23.302 12.195.867 3.455-.06 5.32-3.312 6.666-9.765 4.039-13.213 5.994-16.665 9.446-12.691 12.691-12.207 33.652 1.045 45.318 15.04 13.238 37.47 9.584 48.199-7.853 1.659-2.697 3.928-5.192 5.042-5.546 2.59-.822 5.963.977 7.094 3.783 1.632 4.051 1.06-.733-1.061-8.877-1.137-4.366-4.03-12.093-6.429-17.172C219.868 63.279 193.648 42.396 160 34.93c-10.317-2.29-32.186-2.49-41.895-.384m124.974 90.037c.048 1.165.285 1.402.604.605.289-.722.253-1.585-.079-1.917-.332-.332-.568.258-.525 1.312M1.049 203.25L1 256l55.75-.09c50.723-.081 55.059-.215 48.084-1.477-17.286-3.128-36.676-11.2-50.684-21.1-3.658-2.585-10.425-8.33-15.04-12.767C21.048 203.2 9.712 183.814 3.443 159.568L1.098 150.5l-.049 52.75" fill="#1976D2" fill-rule="evenodd"/></svg>