<svg xmlns="http://www.w3.org/2000/svg" width="256" height="256"><path fill-opacity=".016" d="M0 128.004v128.004l128.25-.254 128.25-.254.254-127.75L257.008 0H0v128.004m.485.496c0 70.4.119 99.053.265 63.672.146-35.38.146-92.98 0-128C.604 29.153.485 58.1.485 128.5" fill="#1976D2" fill-rule="evenodd"/><path fill-opacity=".199" d="M101.113 1.487c-36.62 8.275-63.871 33.46-74.741 69.075-2.509 8.221-2.729 10.302-2.743 25.938-.013 14.386.317 18.197 2.145 24.784 9.677 34.855 37.424 61.754 72.471 70.254 3.44.834 11.205 1.721 17.255 1.97 11.523.474 11.27.278-3.901-3.028-9.825-2.141-24.907-9.6-33.395-16.516-12.982-10.577-22.594-25.276-27.799-42.513-2.383-7.889-2.703-10.612-2.703-22.951s.32-15.062 2.703-22.951c7.104-23.524 21.496-41.073 42.663-52.023 14.009-7.247 21.778-9.02 39.432-8.998 17.466.021 23.112 1.234 37.055 7.959 25.6 12.348 41.121 32.962 47.068 62.513l1.308 6.5-.392-11c-.836-23.421-10.374-44.578-27.958-62.012-12.421-12.314-25.435-20.055-42.16-25.076C139.774 1.116 136.287.685 123 .389c-11.002-.245-17.353.073-21.887 1.098m23.962 44.6C108.652 49.309 93.772 58.13 84.232 70.3c-10.693 13.641-14.336 23.418-14.991 40.233-.557 14.311.803 20.985 6.718 32.967 8.87 17.969 24.637 30.898 44.154 36.209 8.604 2.341 26.042 2.283 34.887-.118 18.141-4.923 35.712-19.224 43.807-35.655 5.041-10.233 7.152-19.382 7.176-31.104.024-12.146-.31-12.673-5.223-8.234-6.492 5.865-11.99 7.893-21.26 7.839-9.856-.056-15.978-2.838-22.699-10.314-12.792-14.227-8.948-37.401 7.665-46.214 2.493-1.323 4.534-2.698 4.534-3.056 0-.985-13.775-5.738-19.886-6.862-6.362-1.17-17.817-1.124-24.039.096M122 230v17h6V227.885l4.25.308 4.25.307.5 9 .5 9 3.25.313 3.25.314v-8.517c0-4.684-.538-9.696-1.195-11.138-1.54-3.381-5.651-5.472-10.755-5.472H128v-4.5c0-4.333-.111-4.5-3-4.5h-3v17m94 0v17h7v-34h-7v17m13 0v17h6v-34h-6v17m10.77-15.75c.558.688 1.236 2.15 1.506 3.25.456 1.853.501 1.839.608-.191.167-3.152 2.116-3.952 2.116-.868 0 1.407.45 2.559 1 2.559s1-.675 1-1.5c0-1.874 2.265-1.518 3.18.5.41.906.707.165.75-1.872.058-2.794-.172-3.172-1.341-2.202-.965.801-1.616.839-2.059.123-.356-.577-2.252-1.049-4.211-1.049-2.726 0-3.325.294-2.549 1.25m-228.66 9.146c-3.409 1.889-5.034 5.38-5.075 10.904-.039 5.321 1.97 10.097 4.91 11.67 2.102 1.125 9.95 1.391 12.473.423.87-.334 1.582-1.711 1.582-3.061 0-2.334-.216-2.422-4.401-1.795-3.676.552-4.748.314-6.5-1.438-2.271-2.271-2.765-6.986-1.064-10.165.83-1.55 2.121-1.934 6.5-1.934 5.098 0 5.465-.161 5.465-2.393 0-1.316-.712-2.666-1.582-3-2.729-1.047-9.815-.593-12.308.789m20.64-.316c-1.505.877-1.75 2.62-1.75 12.47V247h6V228.127l3.25-.314c2.708-.261 3.303-.772 3.566-3.063.307-2.667.171-2.749-4.5-2.72-2.649.017-5.604.489-6.566 1.05M47 231.066c0 12.946 1.952 15.849 10.694 15.902 4.058.025 5.8-.489 7.96-2.347 2.621-2.254 2.787-2.913 3.175-12.572l.409-10.193-3.369.322-3.369.322-.5 9c-.499 8.984-.505 9.001-3.31 9.322-4.768.547-5.69-1.145-5.69-10.444V222h-6v9.066m27.965-7.031c-1.824 1.824-2.005 3.092-1.75 12.25L73.5 246.5l3.25.313 3.25.314V228h3.893c4.777 0 5.107.716 5.107 11.082V247h6v-10.045c0-9.333-.174-10.22-2.455-12.5-2.106-2.107-3.383-2.455-9-2.455-5.249 0-6.948.403-8.58 2.035m27.805-.069c-5.967 4.694-6.385 15.309-.799 20.299 2.812 2.513 3.806 2.797 8.848 2.533 5.315-.279 5.701-.469 5.988-2.951.299-2.581.168-2.649-4.785-2.5-5.939.178-6.984-.862-7.007-6.975-.019-5.265 1.675-6.678 7.461-6.217 4.318.343 4.524.239 4.524-2.291 0-3.084-1.504-3.864-7.447-3.864-2.744 0-5.181.706-6.783 1.966m44.236-.779c.003.722 1.796 5.925 3.986 11.561l3.98 10.248-1.986 5.039c-1.092 2.772-1.986 5.247-1.986 5.502 0 .255 1.482.463 3.293.463h3.294l5.848-15.75 6.314-17c.315-.848-.642-1.25-2.978-1.25-3.439 0-3.445.008-5.989 8.242l-2.546 8.241-2.513-7.991c-2.38-7.569-2.677-8.009-5.618-8.305-2.058-.208-3.103.129-3.099 1m28.745-.498c-2.412.63-2.884 3.29-2.544 14.311l.293 9.5 3.25.313 3.25.314v-19l3.25-.314c2.708-.261 3.303-.772 3.566-3.063.308-2.676.188-2.747-4.5-2.634-2.649.064-5.603.322-6.565.573m17.55 1.269c-6.033 3.679-6.704 14.793-1.223 20.274 2.295 2.295 3.633 2.768 7.829 2.768 4.179 0 5.631-.509 8.327-2.918 3.069-2.742 3.266-3.319 3.266-9.582 0-6.263-.197-6.84-3.266-9.582-3.988-3.563-10.027-3.951-14.933-.96m3.27 4.613c-.947.948-1.571 3.301-1.571 5.929 0 4.862 1.889 7.5 5.371 7.5 3.455 0 4.629-1.945 4.629-7.665 0-4.182-.398-5.478-1.934-6.3-2.713-1.452-4.668-1.29-6.495.536" fill="#1976D2" fill-rule="evenodd"/><path fill-opacity=".219" d="M103.342 1.479C76.234 6.398 50.868 24.017 36.62 47.822c-16.192 27.055-17.745 61.184-4.094 90.001 15.283 32.264 46.392 53.334 81.974 55.524 7.641.47 8.321.397 4.5-.486-21.979-5.076-35.493-12.314-48.646-26.052-31.368-32.763-31.368-83.855 0-116.618 16.727-17.47 37.227-26.339 61.146-26.451 41.221-.194 75.108 26.528 84.59 66.705l1.902 8.055-.554-8.814C214.286 39.461 170.749-.416 119.619.09c-5.015.05-12.34.675-16.277 1.389m24.194 44.587c-25.428 3.903-47.229 22.185-55.217 46.303-2.357 7.116-2.697 9.753-2.728 21.131-.033 12.001.199 13.662 3.022 21.618 7.163 20.19 22.46 35.511 42.552 42.618 9.937 3.515 27.512 4.334 38.128 1.778 15.348-3.696 30.455-13.657 39.001-25.716 9.5-13.407 13.114-24.376 13.169-39.964.02-5.866-.248-10.951-.596-11.3-.349-.349-2.149.751-4 2.445-6.281 5.744-11.346 7.523-21.367 7.504-7.375-.014-9.763-.422-13.222-2.256-6.679-3.542-10.945-7.874-14.231-14.449-5.542-11.091-3.775-24.415 4.45-33.564 2.372-2.638 5.931-5.668 7.908-6.733 1.977-1.065 3.595-2.229 3.595-2.586 0-.758-9.689-4.374-15.5-5.784-6.327-1.536-18.459-2.043-24.964-1.045m-5.095 168.226c-.272.711-.371 8.248-.218 16.75l.277 15.458h2.5c2.456 0 2.509-.167 3-9.5l.5-9.5 3.125-.304c5.157-.502 6.375 1.672 6.375 11.375 0 8.324.031 8.429 2.5 8.429 2.497 0 2.5-.012 2.5-9.826 0-9.269-.146-9.963-2.581-12.25-2.009-1.887-3.669-2.424-7.5-2.424H128v-4.75c0-4.416-.178-4.75-2.531-4.75-1.393 0-2.755.581-3.028 1.292M217 230v17h5v-34h-5v17m12.441-15.708c-.272.711-.371 8.248-.218 16.75l.277 15.458h5l.274-16.75.274-16.75h-2.555c-1.406 0-2.779.581-3.052 1.292M240.787 216c.242 1.65.563 3 .713 3 .15 0 .471-1.35.713-3 .272-1.854 0-3-.713-3s-.985 1.146-.713 3m7.671-1.932c-.363.588-1.29.827-2.059.532-.77-.296-1.399-.149-1.399.324 0 1.376 2.989 2.142 3.1.795.055-.671.46-.094.9 1.281.759 2.369.806 2.329.9-.75.104-3.375-.314-4.007-1.442-2.182M12.5 222.945c-4.386 1.796-6 4.926-6 11.637 0 5.5.35 6.722 2.554 8.926 4.605 4.606 14.946 4.672 14.946.096 0-2.189-.31-2.323-4.319-1.872-5.611.633-7.681-1.294-7.681-7.148 0-5.78 2.478-8.052 7.978-7.314 3.681.494 4.022.346 4.022-1.749 0-1.527-.748-2.488-2.25-2.891-3.024-.81-6.815-.681-9.25.315m20.218.228l-2.782 1.015.282 11.13c.282 11.129.282 11.13 2.782 11.131 2.456.002 2.509-.166 3-9.473l.5-9.476 3.25-.313c2.692-.26 3.25-.732 3.25-2.75 0-2.163-.421-2.428-3.75-2.358-2.062.043-5.002.536-6.532 1.094m44.032-.065L74 224.167V247h2.462c2.417 0 2.468-.172 2.75-9.144.326-10.351 1.411-12.075 6.485-10.297 2.733.957 2.816 1.206 3.303 9.961.489 8.784.554 8.98 3 8.963 2.494-.017 2.5-.042 2.5-9.725 0-8.656-.237-9.944-2.191-11.896-2.536-2.533-11.042-3.492-15.559-1.754m27.75.312c-1.65.738-3.6 2.349-4.333 3.581-1.658 2.784-1.823 11.905-.267 14.812 3.144 5.874 17.1 7.276 17.1 1.717 0-2.068-.361-2.202-4.789-1.776-5.933.57-7.711-1.157-7.711-7.488 0-5.758 2.273-7.65 8.25-6.863 3.956.52 4.25.396 4.25-1.797 0-3.541-6.808-4.732-12.5-2.186m72.5-.527c-2.46.683-2.504.877-2.78 12.248l-.281 11.553 2.781-.145 2.78-.145.5-9.452c.499-9.427.507-9.453 3.25-9.768 2.16-.249 2.75-.839 2.75-2.75 0-2.1-.446-2.42-3.25-2.334-1.787.055-4.375.412-5.75.793m18.388.087c-3.901 1.576-6.388 5.901-6.388 11.108 0 2.65.538 5.998 1.195 7.44 2.432 5.337 10.645 7.086 16.504 3.514 5.05-3.079 6.529-11.842 3.102-18.377-1.887-3.598-9.691-5.593-14.413-3.685m-148.235 9.494c.291 7.949.678 9.805 2.407 11.532 3.885 3.882 12.569 3.865 16.465-.031C67.714 242.286 68 240.626 68 232.5c0-9.467-.009-9.5-2.5-9.5-2.458 0-2.5.135-2.5 7.977 0 7.44-.171 8.089-2.541 9.642-2.035 1.333-3.031 1.442-5 .544-2.332-1.062-2.459-1.56-2.459-9.642V223h-6.193l.346 9.474m100.341-7.724c.39.963 2.3 5.915 4.244 11.005l3.536 9.254-2.127 5.558-2.127 5.558 3.138-.312c3.077-.307 3.254-.62 8.984-15.813 3.215-8.525 5.848-15.838 5.852-16.25.003-.412-1.265-.75-2.818-.75-2.639 0-2.978.492-5.182 7.518-1.297 4.135-2.67 7.173-3.052 6.75-.382-.422-1.687-3.805-2.9-7.518-2.078-6.36-2.38-6.75-5.231-6.75-2.484 0-2.898.313-2.317 1.75m48.706 3.45c-.66.66-1.2 3.495-1.2 6.3 0 2.805.54 5.64 1.2 6.3 1.989 1.989 6.528 1.426 8.243-1.023 3.467-4.948.832-12.777-4.3-12.777-1.509 0-3.283.54-3.943 1.2" fill="#1976D2" fill-rule="evenodd"/><path fill-opacity=".108" d="M108.874.974C67.328 6.22 33.892 36.913 25.533 77.477c-2.067 10.028-2.133 28.635-.136 38.075 8.141 38.477 37.153 67.733 74.893 75.521 5.066 1.045 11.01 1.882 13.21 1.859 3.616-.038 3.32-.22-3.073-1.897-25.003-6.557-46.538-24.947-57.051-48.72-6.805-15.386-8.634-36.732-4.577-53.412 7.535-30.982 30.124-54.011 61.912-63.12 11.128-3.188 32.391-3.206 43.446-.036 32.126 9.212 55.11 33.226 62.454 65.253l1.262 5.5-.549-6.5c-3.571-42.287-32.136-76.204-72.883-86.54C133.933.794 118.719-.269 108.874.974m11.356 47.041c-21.539 5.643-39.296 21.708-46.777 42.317-9.984 27.506-.934 59.006 21.93 76.334 21.989 16.666 51.497 18.845 75.617 5.583 10.112-5.559 21.748-17.807 26.837-28.249 5.632-11.554 7.163-18.266 7.163-31.397v-10.977l-2.75 2.526c-5.064 4.652-8.998 6.825-15.259 8.429-19.299 4.944-38.322-9.994-38.406-30.158-.049-11.726 6.698-22.92 16.746-27.786l2.961-1.435-3.204-1.657c-10.618-5.49-31.196-7.11-44.858-3.53M122.05 230l.13 16H128v-19h3.8c5.491 0 6.2 1.224 6.2 10.7 0 8.187.034 8.3 2.5 8.3 2.482 0 2.5-.064 2.5-9.045 0-8.271-.21-9.256-2.455-11.5-1.957-1.958-3.476-2.455-7.5-2.455H128v-4.5c0-4.346-.104-4.5-3.039-4.5h-3.04l.129 16m94.95 0v16h5v-32h-5v16m13 0v16h5v-32h-5v16m-192.98-7.257c-6.735.593-7.02 1.115-7.02 12.879V246h6v-19h3c2.533 0 3-.389 3-2.5 0-1.375-.112-2.421-.25-2.325-.138.096-2.266.352-4.73.568M182 222.68c-8.503.874-8 .098-8 12.339V246h2.462c2.419 0 2.468-.165 2.75-9.25l.288-9.25 3.25-.313c2.692-.26 3.25-.732 3.25-2.75 0-1.341-.113-2.365-.25-2.277-.137.088-1.825.322-3.75.52m-171.721 1.823c-4.286 3.029-5.182 12.679-1.69 18.197 2.869 4.535 15.41 5.283 15.412.919 0-1.911-.471-2.086-4.809-1.785-5.957.413-7.525-1.156-7.525-7.529 0-5.763 2.065-7.571 8.121-7.111 3.812.29 4.256.103 4-1.684-.243-1.693-1.155-2.055-5.788-2.293-3.767-.194-6.2.211-7.721 1.286M48 232.748c.275 5.364.856 10.302 1.292 10.975 1.178 1.818 7.986 3.371 11.603 2.648C66.402 245.27 68 242.008 68 231.865c0-8.789-.021-8.865-2.5-8.865-2.466 0-2.5.113-2.5 8.3 0 9.09-.779 10.7-5.177 10.7-4.39 0-6.056-3.522-5.657-11.955.329-6.942.296-7.049-2.166-7.049h-2.5l.5 9.752m27.2-8.548c-.778.778-1.2 4.822-1.2 11.5 0 10.278.005 10.3 2.462 10.3 2.419 0 2.468-.165 2.75-9.25.276-8.853.389-9.264 2.64-9.583 1.293-.183 3.431-.062 4.75.269 2.308.58 2.398.939 2.398 9.583 0 8.913.019 8.981 2.5 8.981 2.491 0 2.5-.033 2.5-9.5 0-12.296-.963-13.5-10.8-13.5-3.956 0-7.302.502-8 1.2m26.774 1.672C99.396 228.45 99 229.579 99 234.346c0 6.61 3.058 11.072 8.244 12.031 4.274.79 9.173-.59 9.579-2.699.268-1.387-.529-1.678-4.595-1.678-6.083 0-8.228-2.001-8.228-7.674 0-5.661 2.521-7.753 8.53-7.076 4.233.478 4.556.356 4.274-1.617-.264-1.854-1.059-2.172-6.08-2.434-5.268-.274-6.038-.038-8.75 2.673m49.508 8.307l4.294 11.179-1.888 4.404c-2.44 5.691-2.386 6.238.612 6.238 1.375 0 2.5-.141 2.5-.313 0-.172 2.698-7.484 5.996-16.25 3.298-8.765 5.998-16.079 6-16.253.002-.174-1.198-.174-2.668 0-2.373.281-2.974 1.21-5.381 8.316-3.028 8.939-2.8 9.035-6.505-2.75-1.619-5.15-2.092-5.75-4.53-5.75h-2.723l4.293 11.179m42.174-10.046c-2.309 1.342-4.656 6.828-4.656 10.885 0 7.249 6.399 12.756 13.303 11.447 6.247-1.185 8.697-4.7 8.697-12.476 0-4.351-.45-5.593-2.923-8.066-2.437-2.437-3.726-2.918-7.75-2.893-2.655.017-5.657.513-6.671 1.103m1.901 5.09c-2.948 4.208-1.266 12.084 2.815 13.179 3.158.847 3.452.774 5.628-1.402 2.215-2.215 2.738-8.752.965-12.066-1.506-2.814-7.361-2.634-9.408.289" fill="#1976D2" fill-rule="evenodd"/></svg>